# xmcd
#
# Track frame offsets: 
#        150
#        21922
#        48905
#        67477
#        102910
#        130405
#        152085
#        177905
#        199592
#        225547
#        243410
#        269730
#        294262
#        319425
#
# Disc length: 4587 seconds
#
# Revision: 3
# Processed by: cddbd v1.5.2PL0 Copyright (c) Steve Scherf et al.
# Submitted via: ExactAudioCopy v1.0b3
#
DISCID=d211e90e
DTITLE=Judas Priest - Metalogy [CD4]
DYEAR=2004
DGENRE=Heavy Metal
TTITLE0=Ram It Down
TTITLE1=Heavy Metal
TTITLE2=Come And Get It
TTITLE3=Blood Red Skies
TTITLE4=Painkiller
TTITLE5=Between The Hammer and The Anvil
TTITLE6=A Touch Of Evil
TTITLE7=Metal Meltdown
TTITLE8=Night Crawler
TTITLE9=All Guns Blazing
TTITLE10=Jugulator
TTITLE11=Bloodstained
TTITLE12=Machine Man
TTITLE13=Feed On Me
EXTD=YEAR: 2004
EXTT0=
EXTT1=
EXTT2=
EXTT3=
EXTT4=
EXTT5=
EXTT6=
EXTT7=
EXTT8=
EXTT9=
EXTT10=
EXTT11=
EXTT12=
EXTT13=
PLAYORDER=
